<svg width="24" height="24" viewBox="0 0 24 24" fill="none" xmlns="http://www.w3.org/2000/svg">
<g clip-path="url(#clip0_4935_707)">
<mask id="mask0_4935_707" style="mask-type:alpha" maskUnits="userSpaceOnUse" x="0" y="0" width="24" height="24">
<rect width="24" height="24" fill="#C4C4C4"/>
</mask>
<g mask="url(#mask0_4935_707)">
<path d="M18.9502 16.075L17.8502 15.05C18.4835 14.5667 19.0462 14.0373 19.5382 13.462C20.0295 12.8873 20.4502 12.2333 20.8002 11.5C19.9669 9.81667 18.7709 8.479 17.2122 7.487C15.6542 6.49567 13.9169 6 12.0002 6C11.5169 6 11.0419 6.03333 10.5752 6.1C10.1085 6.16667 9.6502 6.26667 9.2002 6.4L8.0252 5.225C8.65853 4.975 9.30453 4.79167 9.9632 4.675C10.6212 4.55833 11.3002 4.5 12.0002 4.5C14.2169 4.5 16.2375 5.08733 18.0622 6.262C19.8875 7.43733 21.2669 8.98333 22.2002 10.9C22.2335 10.9667 22.2585 11.054 22.2752 11.162C22.2919 11.2707 22.3002 11.3833 22.3002 11.5C22.3002 11.6167 22.2919 11.729 22.2752 11.837C22.2585 11.9457 22.2335 12.0333 22.2002 12.1C21.8169 12.8833 21.3542 13.6083 20.8122 14.275C20.2709 14.9417 19.6502 15.5417 18.9502 16.075ZM19.2252 21.35L15.7252 17.85C15.2085 18.05 14.6379 18.2083 14.0132 18.325C13.3879 18.4417 12.7169 18.5 12.0002 18.5C9.76686 18.5 7.74186 17.9127 5.9252 16.738C4.10853 15.5627 2.73353 14.0167 1.8002 12.1C1.76686 12.0333 1.74186 11.9457 1.7252 11.837C1.70853 11.729 1.7002 11.6167 1.7002 11.5C1.7002 11.3833 1.70853 11.275 1.7252 11.175C1.74186 11.075 1.76686 10.9833 1.8002 10.9C2.18353 10.1333 2.64186 9.425 3.1752 8.775C3.70853 8.125 4.28353 7.55 4.9002 7.05L2.6502 4.775C2.5002 4.625 2.4252 4.45 2.4252 4.25C2.4252 4.05 2.5002 3.86667 2.6502 3.7C2.8002 3.56667 2.97953 3.5 3.1882 3.5C3.3962 3.5 3.56686 3.56667 3.7002 3.7L20.3002 20.3C20.4335 20.4333 20.5045 20.6 20.5132 20.8C20.5212 21 20.4502 21.1833 20.3002 21.35C20.1502 21.4833 19.9712 21.55 19.7632 21.55C19.5545 21.55 19.3752 21.4833 19.2252 21.35ZM5.9502 8.1C5.41686 8.51667 4.90453 9.021 4.4132 9.613C3.9212 10.2043 3.51686 10.8333 3.2002 11.5C4.03353 13.1833 5.2292 14.5207 6.7872 15.512C8.34586 16.504 10.0835 17 12.0002 17C12.4502 17 12.9002 16.9623 13.3502 16.887C13.8002 16.8123 14.1835 16.7333 14.5002 16.65L13.2502 15.35C13.0669 15.4167 12.8669 15.4707 12.6502 15.512C12.4335 15.554 12.2169 15.575 12.0002 15.575C10.8669 15.575 9.90453 15.179 9.1132 14.387C8.3212 13.5957 7.9252 12.6333 7.9252 11.5C7.9252 11.3 7.9462 11.0873 7.9882 10.862C8.02953 10.6373 8.08353 10.4333 8.1502 10.25L5.9502 8.1Z" fill="#3C5346"/>
</g>
</g>
<defs>
<clipPath id="clip0_4935_707">
<rect width="24" height="24" fill="white"/>
</clipPath>
</defs>
</svg>
