<svg width="24" height="24" viewBox="0 0 24 24" fill="none" xmlns="http://www.w3.org/2000/svg">
<g clip-path="url(#clip0_2063_14209)">
<mask id="mask0_2063_14209" style="mask-type:alpha" maskUnits="userSpaceOnUse" x="0" y="0" width="24" height="24">
<rect width="24" height="24" fill="#D9D9D9"/>
</mask>
<g mask="url(#mask0_2063_14209)">
<path d="M8.75 11.5C8.53333 11.5 8.35417 11.4292 8.2125 11.2875C8.07083 11.1458 8 10.9667 8 10.75C8 10.5333 8.07083 10.3542 8.2125 10.2125C8.35417 10.0708 8.53333 10 8.75 10H15.25C15.4667 10 15.6458 10.0708 15.7875 10.2125C15.9292 10.3542 16 10.5333 16 10.75C16 10.9667 15.9292 11.1458 15.7875 11.2875C15.6458 11.4292 15.4667 11.5 15.25 11.5H8.75ZM9.75 14.5C9.53333 14.5 9.35417 14.4292 9.2125 14.2875C9.07083 14.1458 9 13.9667 9 13.75C9 13.5333 9.07083 13.3542 9.2125 13.2125C9.35417 13.0708 9.53333 13 9.75 13H14.25C14.4667 13 14.6458 13.0708 14.7875 13.2125C14.9292 13.3542 15 13.5333 15 13.75C15 13.9667 14.9292 14.1458 14.7875 14.2875C14.6458 14.4292 14.4667 14.5 14.25 14.5H9.75ZM7 23C6.45 23 5.97917 22.8042 5.5875 22.4125C5.19583 22.0208 5 21.55 5 21V3C5 2.45 5.19583 1.97917 5.5875 1.5875C5.97917 1.19583 6.45 1 7 1H17C17.55 1 18.0208 1.19583 18.4125 1.5875C18.8042 1.97917 19 2.45 19 3V21C19 21.55 18.8042 22.0208 18.4125 22.4125C18.0208 22.8042 17.55 23 17 23H7ZM7 18H17V6H7V18Z" fill="#3C5346"/>
</g>
</g>
<defs>
<clipPath id="clip0_2063_14209">
<rect width="24" height="24" fill="white"/>
</clipPath>
</defs>
</svg>
