<svg width="26" height="28" viewBox="0 0 26 28" fill="none" xmlns="http://www.w3.org/2000/svg">
<path opacity="0.993457" d="M17.0285 3.45968L12.2607 3.01664C11.9327 3.00524 11.6795 2.88332 11.5009 2.65088C11.3216 2.41904 11.2535 2.15768 11.2962 1.867C11.3076 1.53891 11.4254 1.28076 11.6497 1.09254C11.874 0.904317 12.1409 0.823737 12.4502 0.850809L19.6697 1.48242C19.8415 1.49746 20.0022 1.54615 20.1516 1.6285C20.2995 1.71073 20.4284 1.81728 20.5382 1.94812C20.648 2.07896 20.7308 2.22476 20.7867 2.38556C20.8413 2.54624 20.861 2.71244 20.846 2.8844L20.2145 10.1037C20.1873 10.4131 20.0617 10.662 19.8373 10.8501C19.613 11.0384 19.3461 11.1189 19.0368 11.0919C18.7273 11.0648 18.4785 10.9392 18.2904 10.7149C18.1021 10.4905 18.0137 10.2144 18.0251 9.88616L18.4401 5.14208L10.8415 11.518C10.5985 11.7219 10.3313 11.8112 10.0397 11.7856C9.74686 11.7601 9.49846 11.6257 9.29446 11.3827C9.09058 11.1397 9.00178 10.8721 9.02806 10.58C9.0529 10.2877 9.18682 10.0396 9.42982 9.83576L17.0285 3.45968Z" fill="white"/>
<path opacity="0.988515" d="M7.5606 22.8586L15.1592 16.4827C15.4022 16.2788 15.6702 16.1896 15.963 16.2152C16.2546 16.2408 16.5023 16.375 16.7062 16.618C16.9102 16.861 16.9996 17.1286 16.9747 17.421C16.9484 17.713 16.8138 17.9611 16.5708 18.165L8.97228 24.541L13.7399 24.9841C14.0336 24.9925 14.2746 25.1089 14.4628 25.3332C14.651 25.5574 14.7316 25.8243 14.7046 26.1337C14.6932 26.4618 14.5753 26.72 14.351 26.9082C14.1266 27.0964 13.8599 27.177 13.5504 27.15L6.33108 26.5183C6.15924 26.5033 5.99928 26.4547 5.8512 26.3724C5.70192 26.29 5.57232 26.1835 5.46252 26.0526C5.35272 25.9218 5.27052 25.776 5.21604 25.6154C5.16012 25.4546 5.1396 25.2883 5.15472 25.1163L5.78627 17.897C5.81339 17.5876 5.93904 17.3388 6.16332 17.1506C6.38772 16.9623 6.6624 16.8912 6.98748 16.9369C7.29684 16.9639 7.54188 17.0852 7.7226 17.3005C7.90272 17.515 7.98695 17.7865 7.97568 18.1146L7.5606 22.8586Z" fill="white"/>
</svg>
