<svg width="24" height="24" viewBox="0 0 24 24" fill="none" xmlns="http://www.w3.org/2000/svg">
<g clip-path="url(#clip0_4935_443)">
<mask id="mask0_4935_443" style="mask-type:alpha" maskUnits="userSpaceOnUse" x="0" y="0" width="24" height="24">
<rect width="24" height="24" fill="#C4C4C4"/>
</mask>
<g mask="url(#mask0_4935_443)">
<path d="M12.0002 15.575C13.1335 15.575 14.0959 15.179 14.8872 14.387C15.6792 13.5957 16.0752 12.6333 16.0752 11.5C16.0752 10.3667 15.6792 9.40433 14.8872 8.613C14.0959 7.821 13.1335 7.425 12.0002 7.425C10.8669 7.425 9.90453 7.821 9.1132 8.613C8.3212 9.40433 7.9252 10.3667 7.9252 11.5C7.9252 12.6333 8.3212 13.5957 9.1132 14.387C9.90453 15.179 10.8669 15.575 12.0002 15.575ZM12.0002 18.5C9.81686 18.5 7.81253 17.925 5.9872 16.775C4.16253 15.625 2.76686 14.0667 1.8002 12.1C1.76686 12.0333 1.74186 11.9457 1.7252 11.837C1.70853 11.729 1.7002 11.6167 1.7002 11.5C1.7002 11.3833 1.70853 11.2707 1.7252 11.162C1.74186 11.054 1.76686 10.9667 1.8002 10.9C2.76686 8.93333 4.16253 7.375 5.9872 6.225C7.81253 5.075 9.81686 4.5 12.0002 4.5C14.1835 4.5 16.1875 5.075 18.0122 6.225C19.8375 7.375 21.2335 8.93333 22.2002 10.9C22.2335 10.9667 22.2585 11.054 22.2752 11.162C22.2919 11.2707 22.3002 11.3833 22.3002 11.5C22.3002 11.6167 22.2919 11.729 22.2752 11.837C22.2585 11.9457 22.2335 12.0333 22.2002 12.1C21.2335 14.0667 19.8375 15.625 18.0122 16.775C16.1875 17.925 14.1835 18.5 12.0002 18.5ZM12.0002 17C13.8835 17 15.6129 16.504 17.1882 15.512C18.7629 14.5207 19.9669 13.1833 20.8002 11.5C19.9669 9.81667 18.7629 8.479 17.1882 7.487C15.6129 6.49567 13.8835 6 12.0002 6C10.1169 6 8.38753 6.49567 6.81219 7.487C5.23753 8.479 4.03353 9.81667 3.2002 11.5C4.03353 13.1833 5.23753 14.5207 6.81219 15.512C8.38753 16.504 10.1169 17 12.0002 17Z" fill="#3C5346"/>
</g>
</g>
<defs>
<clipPath id="clip0_4935_443">
<rect width="24" height="24" fill="white"/>
</clipPath>
</defs>
</svg>
