<svg width="24" height="24" viewBox="0 0 24 24" fill="none" xmlns="http://www.w3.org/2000/svg">
<g clip-path="url(#clip0_1502_73173)">
<mask id="mask0_1502_73173" style="mask-type:alpha" maskUnits="userSpaceOnUse" x="0" y="0" width="24" height="24">
<rect width="24" height="24" fill="#C4C4C4"/>
</mask>
<g mask="url(#mask0_1502_73173)">
<path fill-rule="evenodd" clip-rule="evenodd" d="M9.675 17.325C11.125 18.775 12.9 19.5 15 19.5C17.1 19.5 18.875 18.775 20.325 17.325C21.775 15.875 22.5 14.1 22.5 12C22.5 9.9 21.775 8.125 20.325 6.675C18.875 5.225 17.1 4.5 15 4.5C12.9 4.5 11.125 5.225 9.675 6.675C8.225 8.125 7.5 9.9 7.5 12C7.5 14.1 8.225 15.875 9.675 17.325ZM2.713 16.137C3.521 17.379 4.6 18.2917 5.95 18.875C6.21667 18.9917 6.45833 18.975 6.675 18.825C6.89167 18.675 7 18.4417 7 18.125C7 17.9917 6.95833 17.8667 6.875 17.75C6.79167 17.6333 6.68333 17.5417 6.55 17.475C5.46667 17.0083 4.60433 16.2833 3.963 15.3C3.321 14.3167 3 13.2167 3 12C3 10.7833 3.321 9.68333 3.963 8.7C4.60433 7.71667 5.46667 6.99167 6.55 6.525C6.68333 6.45833 6.79167 6.36667 6.875 6.25C6.95833 6.13333 7 6.00833 7 5.875C7 5.55833 6.89167 5.325 6.675 5.175C6.45833 5.025 6.21667 5.00833 5.95 5.125C4.6 5.70833 3.521 6.62067 2.713 7.862C1.90433 9.104 1.5 10.4833 1.5 12C1.5 13.5167 1.90433 14.8957 2.713 16.137ZM14.5931 15.8354C14.7025 15.9451 14.8381 16 15 16C15.1619 16 15.2977 15.9451 15.4074 15.8354C15.5168 15.7261 15.5714 15.5905 15.5714 15.4286V12.5714H18.4286C18.5905 12.5714 18.7261 12.5166 18.8354 12.4069C18.9451 12.2975 19 12.1619 19 12C19 11.8381 18.9451 11.7023 18.8354 11.5926C18.7261 11.4832 18.5905 11.4286 18.4286 11.4286H15.5714V8.57143C15.5714 8.40952 15.5168 8.27371 15.4074 8.164C15.2977 8.05467 15.1619 8 15 8C14.8381 8 14.7025 8.05467 14.5931 8.164C14.4834 8.27371 14.4286 8.40952 14.4286 8.57143V11.4286H11.5714C11.4095 11.4286 11.2737 11.4832 11.164 11.5926C11.0547 11.7023 11 11.8381 11 12C11 12.1619 11.0547 12.2975 11.164 12.4069C11.2737 12.5166 11.4095 12.5714 11.5714 12.5714H14.4286V15.4286C14.4286 15.5905 14.4834 15.7261 14.5931 15.8354Z" fill="#666664"/>
</g>
</g>
<defs>
<clipPath id="clip0_1502_73173">
<rect width="24" height="24" fill="white"/>
</clipPath>
</defs>
</svg>
